# xmcd
#
# Track frame offsets:
#	150
#	15522
#	35281
#	53706
#	69155
#	92425
#	109214
#	126195
#	143117
#	158227
#	182463
#
# Disc length: 2647 seconds
#
# Revision: 1
# Processed by: cddbd v1.5PL3 Copyright (c) Steve Scherf et al.
# Submitted via: EasyCDDAExtractor 6.5.0.3
#
DISCID=820a550b
DTITLE=Graham Parker - Your Country
DYEAR=2004
DGENRE=Country
TTITLE0=Anything for a Laugh
TTITLE1=The Rest Is History
TTITLE2=Cruel Lips
TTITLE3=Almost Thanksgiving Day
TTITLE4=Nation of Shopkeepers
TTITLE5=Queen of Compromise
TTITLE6=Things I've Never Said
TTITLE7=Sugaree
TTITLE8=Tornado Alley
TTITLE9=Fair Ground
TTITLE10=Crawling from the Wreckage (Revisited)
EXTD=
EXTT0=
EXTT1=
EXTT2=
EXTT3=
EXTT4=
EXTT5=
EXTT6=
EXTT7=
EXTT8=
EXTT9=
EXTT10=
PLAYORDER=
